<?xml version="1.0" encoding="utf-8"?>
<!-- Generator: Adobe Illustrator 28.2.0, SVG Export Plug-In . SVG Version: 6.00 Build 0)  -->
<svg version="1.1" id="Layer_1" xmlns="http://www.w3.org/2000/svg" xmlns:xlink="http://www.w3.org/1999/xlink" x="0px" y="0px"
	 viewBox="0 0 18 169.2" style="enable-background:new 0 0 18 169.2;" xml:space="preserve">
<style type="text/css">
	.st0{fill:#ABCD9F;}
	.st1{opacity:0.4;fill:#30AF5B;enable-background:new    ;}
	.st2{fill:#30AF5B;}
	.st3{opacity:0.3;enable-background:new    ;}
	.st4{fill:none;stroke:url(#SVGID_1_);stroke-width:5;stroke-linecap:round;stroke-miterlimit:10;stroke-dasharray:12;}
</style>
<path class="st0" d="M16.8,160.6c-0.2,4.5-3.6,8.1-8.1,8.6c-3.9,0.4-7.3-2.5-7.7-6.3c0-0.3,0-0.6,0-1c0.2-8,8.1-13.1,8.1-13.1
	S17,152.6,16.8,160.6z"/>
<path class="st1" d="M11.4,161c0,1.4-1.2,2.6-2.6,2.7c-1.2,0.1-2.3-0.7-2.4-1.9c0-0.1,0-0.2,0-0.4c0-1.4,1.2-2.6,2.6-2.7
	c1.2-0.1,2.3,0.7,2.4,1.9C11.4,160.8,11.4,160.9,11.4,161z"/>
<path class="st2" d="M0,10.3C0,5.2,3.8,0.8,8.9,0.1C13.3-0.5,17.4,2.5,18,7C18,7.3,18,7.8,18,8.2c0.2,9.2-8.8,15.4-8.8,15.4
	S0.2,19.5,0,10.3z"/>
<path class="st3" d="M0,10.3C0,5.2,3.8,0.8,8.9,0.1C13.3-0.5,17.4,2.5,18,7C18,7.3,18,7.8,18,8.2c0.2,9.2-8.8,15.4-8.8,15.4
	S0.2,19.5,0,10.3z"/>
<ellipse transform="matrix(0.6396 -0.7687 0.7687 0.6396 -3.8909 10.2844)" class="st2" cx="9" cy="9.3" rx="6" ry="5.4"/>
<linearGradient id="SVGID_1_" gradientUnits="userSpaceOnUse" x1="9.0213" y1="966.2825" x2="9.0213" y2="860.9825" gradientTransform="matrix(1 0 0 1 0 -827.7189)">
	<stop  offset="2.770450e-07" style="stop-color:#ABCD9F"/>
	<stop  offset="1" style="stop-color:#227B40"/>
</linearGradient>
<line class="st4" x1="9" y1="35.8" x2="9" y2="136.1"/>
</svg>
