<?xml version="1.0" encoding="UTF-8"?>
<svg id="Layer_2" data-name="Layer 2" xmlns="http://www.w3.org/2000/svg" xmlns:xlink="http://www.w3.org/1999/xlink" viewBox="0 0 1085.53 1433.11">
  <defs>
    <style>
      .cls-1 {
        fill: url(#linear-gradient);
      }

      .cls-1, .cls-2, .cls-3, .cls-4, .cls-5, .cls-6, .cls-7, .cls-8 {
        stroke-width: 0px;
      }

      .cls-9 {
        clip-path: url(#clippath-2);
      }

      .cls-2 {
        fill: #d7f241;
      }

      .cls-2, .cls-8 {
        fill-rule: evenodd;
      }

      .cls-3 {
        fill: url(#linear-gradient-4);
      }

      .cls-3, .cls-7 {
        opacity: .9;
      }

      .cls-4 {
        fill: url(#linear-gradient-5);
      }

      .cls-10 {
        clip-path: url(#clippath-1);
      }

      .cls-5 {
        clip-rule: evenodd;
        fill: none;
      }

      .cls-6 {
        fill: url(#linear-gradient-3);
      }

      .cls-11 {
        clip-path: url(#clippath);
      }

      .cls-12 {
        mask: url(#mask-1);
      }

      .cls-13 {
        mask: url(#mask);
      }

      .cls-7 {
        fill: url(#linear-gradient-2);
      }

      .cls-8 {
        fill: #fde3a7;
      }
    </style>
    <clipPath id="clippath">
      <path class="cls-5" d="M1085.53,542.76C1085.53,243,842.52,0,542.76,0S0,243,0,542.76s494.56,890.35,542.76,890.35,542.76-590.59,542.76-890.35M542.76,735.27c-124.78,0-225.93-101.15-225.93-225.93s101.15-225.93,225.93-225.93,225.93,101.16,225.93,225.93-101.15,225.93-225.93,225.93Z"/>
    </clipPath>
    <linearGradient id="linear-gradient" x1="537.32" y1="2173" x2="547.08" y2="-439.58" gradientUnits="userSpaceOnUse">
      <stop offset="0" stop-color="#9caab9"/>
      <stop offset="1" stop-color="#fff"/>
    </linearGradient>
    <clipPath id="clippath-1">
      <path class="cls-5" d="M33.57,703.83c112.08,311.18,468.63,729.28,509.19,729.28,37.85,0,350.94-364.17,483.66-665.72-640.06,430.97-569.86-238.79-992.85-63.56"/>
    </clipPath>
    <linearGradient id="linear-gradient-2" x1="526.64" y1="944.56" x2="496.05" y2="614.41" gradientUnits="userSpaceOnUse">
      <stop offset="0" stop-color="#045304"/>
      <stop offset="1" stop-color="#b0f122"/>
    </linearGradient>
    <linearGradient id="linear-gradient-3" x1="-972.81" y1="305.13" x2="908.1" y2="1092.33" gradientTransform="translate(67.73 -90.91)" gradientUnits="userSpaceOnUse">
      <stop offset="0" stop-color="#fff"/>
      <stop offset="1" stop-color="#000"/>
    </linearGradient>
    <mask id="mask" x="33.57" y="673.89" width="992.85" height="281.88" maskUnits="userSpaceOnUse">
      <rect class="cls-6" x="33.57" y="673.89" width="992.85" height="281.88"/>
    </mask>
    <clipPath id="clippath-2">
      <path class="cls-5" d="M960.82,897.44c-257.16-314.25-538.26-17.11-810.81,43.75,149.76,251.76,362.01,491.92,392.75,491.92,32.52,0,268.14-268.74,418.06-535.67"/>
    </clipPath>
    <linearGradient id="linear-gradient-4" x1="556.19" y1="1529.37" x2="554.89" y2="651.06" gradientUnits="userSpaceOnUse">
      <stop offset="0" stop-color="#e3048a"/>
      <stop offset="1" stop-color="#ffcf4b"/>
    </linearGradient>
    <linearGradient id="linear-gradient-5" x1="1577.18" y1="803.66" x2="58.53" y2="1018.84" gradientTransform="translate(73.09 -89.68)" xlink:href="#linear-gradient-3"/>
    <mask id="mask-1" x="150.01" y="755.59" width="810.81" height="227.05" maskUnits="userSpaceOnUse">
      <rect class="cls-4" x="150.01" y="755.59" width="810.81" height="227.05"/>
    </mask>
  </defs>
  <g id="Layer_1-2" data-name="Layer 1">
    <g>
      <g class="cls-11">
        <rect class="cls-1" width="1085.53" height="1433.11"/>
      </g>
      <g class="cls-10">
        <rect class="cls-7" x="33.57" y="528.6" width="992.85" height="904.52"/>
      </g>
      <g class="cls-13">
        <path class="cls-2" d="M33.57,703.83c10.5,29.17,23.16,59.28,37.5,89.9,363.67-158.21,385.68,455.54,955.35-26.34-640.06,430.97-569.86-238.79-992.85-63.56"/>
      </g>
      <g class="cls-9">
        <rect class="cls-3" x="150.01" y="583.2" width="810.81" height="849.91"/>
      </g>
      <g class="cls-12">
        <path class="cls-8" d="M907.66,841.21c-153.5-138.28-314.55-84.12-476.48-11.38-93.86,42.16-188.01,90.56-281.16,111.36,108.55-3.22,225.11-41.28,338.41-65.6,112.73-24.2,222.21-34.78,317.34,16.1,37.26,19.93,72.31,49.29,104.49,90.95,17.6-28.2,34.57-56.71,50.57-85.2-17.61-21.52-35.34-40.18-53.16-56.24"/>
      </g>
    </g>
  </g>
</svg>