<?xml version="1.0" encoding="utf-8"?>
<!-- Generator: Adobe Illustrator 28.2.0, SVG Export Plug-In . SVG Version: 6.00 Build 0)  -->
<svg version="1.1" xmlns="http://www.w3.org/2000/svg" xmlns:xlink="http://www.w3.org/1999/xlink" x="0px" y="0px"
	 viewBox="0 0 100 100" style="enable-background:new 0 0 100 100;" xml:space="preserve">
<style type="text/css">
	.st0{clip-path:url(#SVGID_00000116196076209059018240000000771069850059757968_);}
	.st1{fill:#4570B4;}
	.st2{fill:#D3445B;}
	.st3{fill:#EDB892;}
	.st4{fill:#28466D;}
	.st5{fill:#FFFFFF;}
	.st6{fill:#E5E5E5;}
	.st7{fill:#171717;}
	.st8{fill:#D68A65;}
	.st9{fill:none;stroke:#D68A65;stroke-width:1.4412;stroke-linecap:round;stroke-linejoin:round;stroke-miterlimit:10;}
</style>
<g id="BACKGROUND">
</g>
<g id="OBJECTS">
	<g>
		<defs>
			<circle id="SVGID_1_" cx="50" cy="50" r="50"/>
		</defs>
		<use xlink:href="#SVGID_1_"  style="overflow:visible;fill:#30AF5B;"/>
		<clipPath id="SVGID_00000088122026924782205940000014109008510624655283_">
			<use xlink:href="#SVGID_1_"  style="overflow:visible;"/>
		</clipPath>
		<g style="clip-path:url(#SVGID_00000088122026924782205940000014109008510624655283_);">
			<path class="st1" d="M66.5,99.6h16c-0.3-8.9-3.2-14.9-5.5-17.8c-1.2-1.5-5.6-4.4-6.1-4.9c0,0,0,0-0.1-0.1c0,0-0.1,0-0.1-0.1
				c0,0-0.1,0-0.1-0.1c0,0,0,0,0,0L66.5,99.6z"/>
			<g>
				<g>
					<polygon class="st2" points="29.1,78.1 30.3,99.6 64.6,99.6 64.1,83.2 62,80.4 58.7,76.2 58.7,76.2 58.7,76.2 56.9,76 
						44.9,74.5 40.2,75.6 37.1,76.3 33.9,77 31.2,77.6 					"/>
					<path class="st3" d="M37.9,80c0,0,13,11.2,22.5-0.5l-7.2-14l-18.1,1.7L37.9,80z"/>
				</g>
				<g>
					<path class="st4" d="M58,70.8l0.7,5.4v0l0,0l0.6,4.6l0.4,3.1c0,0,0.1,1.4,0.2,3.8c0.2,2.8,0.4,6.9,0.7,11.9h11.3l2.3-14.8
						c0.2-1,0.1-2.1-0.1-3.1v0c-0.4-1.9-1.5-3.6-3.1-4.8c0,0,0,0-0.1-0.1c0,0-0.1,0-0.1-0.1c0,0,0,0,0,0c0,0,0,0,0,0c0,0,0,0,0,0
						c-2.3-1.6-5.5-3.5-9.9-5.1C59.9,71.4,59,71,58,70.8z"/>
					<path class="st5" d="M54.7,71.2c0,0,4.2,7.1,5.1,16.6c0,0,7.8-12.4-5.3-25.8L54.7,71.2z"/>
				</g>
			</g>
			<g>
				<g>
					<polygon class="st6" points="36.1,61.3 41,61.1 39.7,65.9 33.4,68 32.2,67.1 					"/>
					<path class="st5" d="M36.1,61.3c0,0-2.5,2.5,1.3,9.6c2,3.8,4.5,6.6,5.5,11.5c0.5,2.6-0.3,9.1-0.3,9.1l-16.5-20
						C26.1,71.5,30.4,61.4,36.1,61.3z"/>
				</g>
				<path class="st4" d="M3.9,90.4l0.6,9.2H44c-0.7-5.1-1.3-8.1-1.3-8.1c-2.1-6.6-5.5-11.3-8.8-14.5c-4.1-4-7.8-5.5-7.8-5.5
					C17.7,75.1,11,79.9,7.2,83c0,0,0,0,0,0C4.9,84.8,3.7,87.5,3.9,90.4z"/>
			</g>
			<path class="st1" d="M-2.7,99.6h21.1C14.2,88.2,7.4,83.2,7.1,83c0,0,0,0,0,0C2.8,85.4-0.4,91.7-2.7,99.6z"/>
			<path class="st7" d="M62.9,19.4c0,0,1.2,3-0.8,7.7l-3.3-7.9L62.9,19.4z"/>
			<path class="st8" d="M57,38.4c1,2.7,3.9,4.1,6.6,3.1c2.7-1,4.1-3.9,3.1-6.6c-1-2.7-3.9-4.1-6.6-3.1C57.4,32.8,56,35.7,57,38.4z"
				/>
			<polygon class="st3" points="54,50.3 54.7,71.2 35.9,67.1 37.2,38.3 			"/>
			<path class="st8" d="M54.3,59.4c0,0-8.8,0.8-10.8-11.1l10.6,4L54.3,59.4z"/>
			<path class="st3" d="M61.6,20.2c0,0,5,17,3.1,24c-1.9,7-7.2,11.6-16.2,10.4c0,0-10.4,0.1-13.9-15.2C29.4,16.5,50.1,8.5,61.6,20.2
				z"/>
			<path class="st7" d="M59.5,33.6c0.2,0.6,0.9,1,1.5,0.8c0.6-0.2,1-0.9,0.8-1.5c-0.2-0.6-0.9-1-1.5-0.8
				C59.6,32.3,59.3,33,59.5,33.6z"/>
			<path class="st7" d="M49.5,34.8c0.2,0.6,0.9,1,1.5,0.8c0.6-0.2,1-0.9,0.8-1.5c-0.2-0.6-0.9-1-1.5-0.8
				C49.6,33.5,49.3,34.2,49.5,34.8z"/>
			<polyline class="st9" points="58.1,34.7 59.6,38.6 57.8,39.2 			"/>
			<path class="st7" d="M53.6,26.6L53.6,26.6c0.3,0.9-0.3,1.9-1.2,2.1c-1.4,0.3-3.5,0.9-5.3,1.9c-0.7,0.4-1.5,0.2-1.9-0.4l0,0
				c-0.4-0.6-0.2-1.4,0.3-1.9c1.1-1,2.9-2.6,6.3-2.8C52.6,25.4,53.4,25.9,53.6,26.6z"/>
			<path class="st7" d="M58.3,26.4L58.3,26.4c0,0.9,0.5,1.8,1.2,1.8c1,0.1,2.4,0.3,3.8,1c0.5,0.3,1-0.1,1.1-0.8l0,0
				c0.1-0.7-0.1-1.4-0.6-1.8c-0.9-0.8-2.3-2-4.6-1.7C58.7,25.1,58.3,25.6,58.3,26.4z"/>
			<g>
				<defs>
					<path id="XMLID_1_" d="M59.1,43.5l-8.9-0.7c0,0,0.8,4.4,4.3,4.4C57.8,47.2,59.1,43.5,59.1,43.5z"/>
				</defs>
				<use xlink:href="#XMLID_1_"  style="overflow:visible;fill:#FFFFFF;"/>
				<clipPath id="XMLID_00000059273694835838069040000000974623902503793343_">
					<use xlink:href="#XMLID_1_"  style="overflow:visible;"/>
				</clipPath>
			</g>
			<path class="st7" d="M38.2,39.2c0,0,5-1,2-13.6c0,0,4.8-4.1,12-3.4c7.1,0.7,16.5-1.4,15.8-8.9c-0.9-9.8-16.9-10.7-27-2.7
				c-9.1,7.3-21.8,11.9-9.3,29.6L38.2,39.2z"/>
			<polygon class="st7" points="32.9,41.4 36.3,50.5 38.3,42.6 			"/>
			<g>
				<path class="st3" d="M28.1,41.2c1.2,3.3,4.8,4.9,8,3.7c3.3-1.2,4.9-4.8,3.7-8c-1.2-3.3-4.8-4.9-8-3.7
					C28.6,34.3,26.9,37.9,28.1,41.2z"/>
				<path class="st9" d="M31.1,37.4c0,0,4.5-1.6,6,3.4"/>
			</g>
		</g>
	</g>
</g>
</svg>
