<?xml version="1.0" encoding="utf-8"?>
<!-- Generator: Adobe Illustrator 28.2.0, SVG Export Plug-In . SVG Version: 6.00 Build 0)  -->
<svg version="1.1" xmlns="http://www.w3.org/2000/svg" xmlns:xlink="http://www.w3.org/1999/xlink" x="0px" y="0px"
	 viewBox="0 0 100 100" style="enable-background:new 0 0 100 100;" xml:space="preserve">
<style type="text/css">
	.st0{clip-path:url(#SVGID_00000056391533361353982720000017297963844114846850_);}
	.st1{fill:#FFFFFF;}
	.st2{fill:#1E0B02;}
	.st3{fill:#C67D69;}
	.st4{fill:none;stroke:#A8523F;stroke-width:0.7482;stroke-linecap:round;stroke-linejoin:round;stroke-miterlimit:10;}
</style>
<g id="BACKGROUND">
</g>
<g id="OBJECTS">
	<g>
		<defs>
			<ellipse id="SVGID_1_" transform="matrix(0.7071 -0.7071 0.7071 0.7071 -20.7107 50)" cx="50" cy="50" rx="50" ry="50"/>
		</defs>
		<use xlink:href="#SVGID_1_"  style="overflow:visible;fill:#30AF5B;"/>
		<clipPath id="SVGID_00000124870715620773140120000000969055771049576624_">
			<use xlink:href="#SVGID_1_"  style="overflow:visible;"/>
		</clipPath>
		<g style="clip-path:url(#SVGID_00000124870715620773140120000000969055771049576624_);">
			<path class="st1" d="M99,102.7H2.6c4.4-20,16.4-24,16.4-24l23-10.8l8.7-0.1h0.2l8.7,0.1l23,10.8C82.6,78.7,94.6,82.7,99,102.7z"
				/>
			<g>
				<path class="st2" d="M56.1,10.6c0,0,8-3.6,10.9,3.2c2.7,6.5-8.1,12.7-8.1,12.7L56.1,10.6z"/>
				<g>
					<path class="st3" d="M41,37.6c0.1,3-2.3,5.5-5.3,5.6c-3,0.1-5.5-2.3-5.6-5.3c-0.1-3,2.3-5.5,5.3-5.6C38.5,32.2,41,34.6,41,37.6
						z"/>
					<path class="st4" d="M32.5,37c0,0,2.2-1.1,4.2,2.7"/>
				</g>
				<g>
					<circle class="st3" cx="66.4" cy="37.7" r="5.4"/>
					<path class="st4" d="M69.5,36.9c0,0-2.2-1-4.2,2.8"/>
				</g>
				<g>
					<path class="st3" d="M58,50.3c0,0-3.1,2.2-5.9,2.7c-2.8,0.5-5.5-1.1-5.6-1.1c0,0-3.3-1.9-3.3-1.9l-1.3,17.9l0.4,0.3
						c4.7,3.9,11.6,4,16.4,0.1l0.7-0.6L58,50.3z"/>
				</g>
				<path class="st2" d="M41.9,48.1c0,0,3.1,10,10.1,9.9c5.8-0.1,6.7-9.9,6.7-9.9H41.9z"/>
				<path class="st3" d="M65.7,28.2c0,6.2-0.8,11.5-1.7,15.3c-0.8,3.7-3.2,6.3-6.7,8.4l-0.6,0.4c-3.6,2.2-8.3,2.3-12,0.2l0,0
					c-3.7-2.1-6.3-4.9-7.1-8.9C36.2,36.4,36,28.4,36,28.4s-2.1-16.7,14-16.4C66,12.2,65.7,28.2,65.7,28.2z"/>
				<g>
					<circle class="st2" cx="43.9" cy="33.1" r="1.3"/>
					<circle class="st2" cx="56.6" cy="33.1" r="1.3"/>
					<polyline class="st4" points="49.1,35 49.1,38.6 51.4,38.6 					"/>
					<path d="M39.1,27.6l8.5-0.8c0,0-0.8-2.2-4.2-1.8C39.9,25.4,39.1,27.6,39.1,27.6z"/>
					<path d="M60.9,27.6l-8.5-0.8c0,0,0.8-2.2,4.2-1.8C60.2,25.4,60.9,27.6,60.9,27.6z"/>
					<path class="st1" d="M46.2,41.6h8.4c0,0-0.4,2.6-4.3,2.6S46.2,41.6,46.2,41.6z"/>
				</g>
				<g>
					<path class="st2" d="M36.5,36.3c0,0,2.4-18,1.2-21C37.7,15.3,29.6,22,36.5,36.3z"/>
					<path class="st2" d="M65.1,36.1c0,0-2.7-17.2-1.9-22.2C63.2,14,71,20.9,65.1,36.1z"/>
				</g>
				<path class="st2" d="M62.6,12.8l-7.4-1.1l-0.7-1.3l-3.9,0.6l-3.9-0.6l-0.7,1.3l-7.4,1.1l-1,4l0.2,4.6c0,0,1.2-5.2,5.2-4.1
					c1,0.2,2.1,0.6,3.5,0.9c1.3,0.3,2.5,0.4,3.6,0.4c0.1,0,0.3,0,0.4,0c0.1,0,0.3,0,0.4,0c1.1,0,2.3-0.1,3.6-0.4
					c1.3-0.3,2.5-0.6,3.5-0.9c3.8-1.3,5.2,3.9,5.2,3.9l0.3-4.3L62.6,12.8z"/>
				<path class="st2" d="M62.5,17.3c0,0-4.8,4.3-11,1c0,0-15.7,9.7-20.1-0.9C27.7,8.6,43-3.3,58.8,10.1L62.5,17.3z"/>
			</g>
			<path class="st3" d="M41.9,67.9l-5.1,2.4c0,0-0.1,8.6,13.9,8.2C65,78,65,70.4,65,70.4l-5.6-2.6L41.9,67.9z"/>
		</g>
	</g>
</g>
</svg>
