<?xml version="1.0" encoding="utf-8"?>
<!-- Generator: Adobe Illustrator 28.2.0, SVG Export Plug-In . SVG Version: 6.00 Build 0)  -->
<svg version="1.1" xmlns="http://www.w3.org/2000/svg" xmlns:xlink="http://www.w3.org/1999/xlink" x="0px" y="0px"
	 viewBox="0 0 100 100" style="enable-background:new 0 0 100 100;" xml:space="preserve">
<style type="text/css">
	.st0{display:none;}
	.st1{clip-path:url(#SVGID_00000023243423934985722330000008177644785713703826_);}
	.st2{fill:#1E0B02;}
	.st3{fill:#E8B499;}
	.st4{fill:none;stroke:#C47268;stroke-width:0.6887;stroke-linecap:round;stroke-linejoin:round;stroke-miterlimit:10;}
	.st5{fill:#FFFFFF;}
	.st6{fill:#EF758D;}
	.st7{fill:none;stroke:#FFFFFF;stroke-width:1.9384;stroke-miterlimit:10;}
</style>
<g id="BACKGROUND" class="st0">
</g>
<g id="OBJECTS">
	<g>
		<defs>
			<ellipse id="SVGID_1_" transform="matrix(0.2204 -0.9754 0.9754 0.2204 -9.7899 87.7514)" cx="50" cy="50" rx="50" ry="50"/>
		</defs>
		<use xlink:href="#SVGID_1_"  style="overflow:visible;fill:#30AF5B;"/>
		<clipPath id="SVGID_00000119091454125446699510000013626176040709199255_">
			<use xlink:href="#SVGID_1_"  style="overflow:visible;"/>
		</clipPath>
		<g style="clip-path:url(#SVGID_00000119091454125446699510000013626176040709199255_);">
			<g>
				<path class="st2" d="M40,7.4c0,0,7-9.5,19.5-3.2c13.6,7,6.3,21.9,6.3,21.9l-29.3-5.6L40,7.4z"/>
				<path class="st2" d="M34.2,26.3c0,0-7.7-15.1,5.9-18.9l2.4,8.1L34.2,26.3z"/>
				<g>
					<path class="st3" d="M40.7,33.2c0.1,3-2.3,5.5-5.3,5.6c-3,0.1-5.5-2.3-5.6-5.3c-0.1-3,2.3-5.5,5.3-5.6
						C38.1,27.9,40.6,30.2,40.7,33.2z"/>
					<path class="st4" d="M32.1,32.6c0,0,2.2-1.1,4.2,2.7"/>
				</g>
				<g>
					<path class="st3" d="M60.6,33.4c0,3,2.4,5.4,5.4,5.4c3,0,5.4-2.4,5.4-5.4S69,27.9,66,27.9C63,27.9,60.6,30.4,60.6,33.4z"/>
					<path class="st4" d="M69.1,32.5c0,0-2.2-1-4.2,2.8"/>
				</g>
				<g>
					<path class="st3" d="M57.6,46c0,0-3.1,2.2-5.9,2.7c-2.8,0.5-5.5-1.1-5.6-1.1c0,0-3.3-1.9-3.3-1.9l-1.3,17.9l0.4,0.3
						c4.7,3.9,11.6,4,16.4,0.1l0.7-0.6L57.6,46z"/>
				</g>
				<path class="st2" d="M41.6,43.8c0,0,3.1,10,10.1,9.9c5.8-0.1,6.7-9.9,6.7-9.9H41.6z"/>
				<path class="st3" d="M65.3,23.9c0,6.2-0.8,11.5-1.7,15.3c-0.8,3.7-4.1,6.3-7.5,8.4l-0.6,0.4c-3.6,2.2-6.6,2.3-10.3,0.2l0,0
					c-3.7-2.1-7.2-4.9-8-8.9c-1.5-7.2-1.7-15.2-1.7-15.2s-2.1-16.7,14-16.4C65.6,7.8,65.3,23.9,65.3,23.9z"/>
				<g>
					<path class="st2" d="M44.8,28.8c0,0.7-0.6,1.3-1.3,1.3c-0.7,0-1.3-0.6-1.3-1.3c0-0.7,0.6-1.3,1.3-1.3
						C44.2,27.5,44.8,28.1,44.8,28.8z"/>
					<path class="st2" d="M57.6,28.8c0,0.7-0.6,1.3-1.3,1.3c-0.7,0-1.3-0.6-1.3-1.3c0-0.7,0.6-1.3,1.3-1.3
						C57,27.5,57.6,28.1,57.6,28.8z"/>
					<polyline class="st4" points="48.7,32.2 48.7,34.3 50.4,34.3 					"/>
					<path d="M38.7,23.3l8.5-0.8c0,0-0.8-2.2-4.2-1.8C39.5,21.1,38.7,23.3,38.7,23.3z"/>
					<path d="M60.6,23.3l-8.5-0.8c0,0,0.8-2.2,4.2-1.8C59.8,21.1,60.6,23.3,60.6,23.3z"/>
					<path class="st5" d="M45.8,37.2h8.4c0,0-0.4,2.6-4.3,2.6S45.8,37.2,45.8,37.2z"/>
				</g>
				<g>
					<path class="st2" d="M36.1,31.9c0,0,0.6-20.4,0.4-21C36.5,11,29.3,17.6,36.1,31.9z"/>
					<path class="st2" d="M64.7,31.8L63.6,9.6C63.6,9.6,70.6,16.6,64.7,31.8z"/>
				</g>
				<path class="st2" d="M42.8,9.2c0,0-5,1.3-4.8,6.2c0.2,4.9-3.1,9.7-3.1,9.7l-1.5-4.9C33.4,20.2,32.2,11.1,42.8,9.2z"/>
				<path class="st2" d="M41.6,9.6c0,0,3.7-2.1,7.4,2.5c3.2,4,11.5,8.1,16.4,4.2c0,0-3.1-11.2-15.4-11S41.6,9.6,41.6,9.6z"/>
			</g>
			<g>
				<g>
					<path class="st6" d="M92.3,101.4H7.9c1.5-6.4,3.1-12.1,4.7-16.5c2.3-6.5,5.7-10.3,8.4-12.5c2.8-2.2,4.9-2.7,4.9-2.7l5.9-2.4
						l37,0l5.4,2.4c0,0,8.7,2.2,13.3,15.3C89.2,89.3,90.8,95,92.3,101.4z"/>
					<g>
						<path class="st3" d="M50.8,59.4l18.1,7.8c0,0-18.6,16.8-37,0L50.8,59.4z"/>
						<path class="st7" d="M31.8,67.2c0,0,6.4,7.6,18.5,7.6s18.6-7.6,18.6-7.6"/>
					</g>
				</g>
			</g>
		</g>
	</g>
</g>
</svg>
