<?xml version="1.0" encoding="utf-8"?>
<!-- Generator: Adobe Illustrator 28.2.0, SVG Export Plug-In . SVG Version: 6.00 Build 0)  -->
<svg version="1.1" xmlns="http://www.w3.org/2000/svg" xmlns:xlink="http://www.w3.org/1999/xlink" x="0px" y="0px"
	 viewBox="0 0 100 100" style="enable-background:new 0 0 100 100;" xml:space="preserve">
<style type="text/css">
	.st0{clip-path:url(#SVGID_00000067931309076052616670000004107867040197881788_);}
	.st1{fill:#FFFFFF;}
	.st2{fill:#D3445B;}
	.st3{fill:none;stroke:#934453;stroke-width:2.2081;stroke-linecap:round;stroke-linejoin:round;stroke-miterlimit:10;}
	.st4{fill:#EF758D;}
	.st5{fill:#934453;}
	.st6{fill:#D68A65;}
	.st7{fill:#EDB892;}
	.st8{fill:#171717;}
	.st9{fill:none;stroke:#D68A65;stroke-width:1.4443;stroke-linecap:round;stroke-linejoin:round;stroke-miterlimit:10;}
	.st10{opacity:0.26;fill:#FFFFFF;}
	.st11{fill:none;stroke:#FFFFFF;stroke-width:1.3744;stroke-linecap:round;stroke-linejoin:round;stroke-miterlimit:10;}
	.st12{fill:#A8527E;}
	.st13{fill:#28466D;}
</style>
<g id="BACKGROUND">
</g>
<g id="OBJECTS">
	<g>
		<defs>
			<circle id="SVGID_1_" cx="50" cy="50" r="50"/>
		</defs>
		<use xlink:href="#SVGID_1_"  style="overflow:visible;fill:#30AF5B;"/>
		<clipPath id="SVGID_00000069375376184891460510000012995335666281329808_">
			<use xlink:href="#SVGID_1_"  style="overflow:visible;"/>
		</clipPath>
		<g style="clip-path:url(#SVGID_00000069375376184891460510000012995335666281329808_);">
			<path class="st1" d="M64.7,82.2L64.6,89l-0.1,10.5l-0.2,18.6H4.1l0.1-1.8l10.7-19.6l9.7-17.7l7.7-14l3,0h0.2l0.3,0L50.1,65
				c0,0,0,0,0,0l3.5,4.2h0L64.7,82.2z"/>
			<g>
				<path class="st2" d="M39.3,92.1l-7-27c-1.8-0.2-3.6-0.2-5.4-0.2c-12.6,0.3-16.4,2.9-20,6.3c-3.7,3.6-12,13.3-17,46.9H1.4h11
					h26.8C39.5,103.8,39.3,92.1,39.3,92.1z"/>
				<polyline class="st3" points="11.9,118.2 14.4,108.6 16.7,99.9 				"/>
			</g>
			<g>
				<path class="st2" d="M56.5,68.3c-0.8-0.5-1.7-0.9-2.4-1.3c-2.3-1.2-3.8-2-4-2c0,0,0,0,0,0l2.1,10.6l3.2,16.4l0.4,26.3H59h10.7
					h9.7C79.8,82.8,67.9,75,56.5,68.3z"/>
				<line class="st3" x1="70.6" y1="103.1" x2="69.9" y2="118.2"/>
				<path class="st4" d="M52.1,76.2l3.4,15.7l9.6,8.1c1.5,1.3,3.8,0,3.5-1.9l-1.1-8.2c-0.3-2.7-1.3-5.3-2.8-7.6L54.6,65L52.1,76.2z"
					/>
			</g>
			<g>
				<path class="st5" d="M75.8,14.6c0.1,0,0.1,0,0.2,0c0.5,0.2,3.2,1.1,2.5,4.2c-0.8,3.5-12,10.5-19.7,6.1l2.8-7.6L75.8,14.6z"/>
				<path class="st6" d="M61.6,43.5c0.6,2.8,3.4,4.6,6.3,4c2.8-0.6,4.6-3.4,4-6.3c-0.6-2.8-3.4-4.6-6.3-4
					C62.8,37.8,61,40.6,61.6,43.5z"/>
				<path class="st7" d="M56.7,55.5l-4.6,20.7l-13.6-5.1c-2.5-0.9-3.9-3.7-3.1-6.3l7.7-25.4L56.7,55.5z"/>
				<path class="st6" d="M55,62.9c0,0-9-1-8.2-11.5l9.4,6L55,62.9z"/>
				<path class="st7" d="M68,25.9c0,0,2.8,17.7,0,24.5c-2.8,6.8-8.7,10.8-17.6,8.4c0,0-10.5-1.3-12-17.1C36.1,18,57.9,12.6,68,25.9z
					"/>
				<path class="st8" d="M43.6,38.5c0,0,1.8-2.9,0-10.7c-1.8-7.8,19.4-7.6,24.4-1.9c0,0-3.4-8.8-16.1-9.2
					c-12.7-0.5-23,7.6-18.6,21.8l3.1,5L43.6,38.5z"/>
				<path class="st8" d="M44.4,34.2c0,0-1,10.3,7.8,12.2c5.6,1.2,11.3-3,16.6,0.7c0,0-2.1,15.6-18.1,11.9c-2.1-0.5-4.1-1.5-5.8-3
					c-3.3-2.8-7.9-8.6-5.1-16.9L44.4,34.2z"/>
				<g>
					<path class="st7" d="M30.2,43.7c0.8,3.4,4.2,5.6,7.6,4.8c3.4-0.8,5.6-4.2,4.8-7.6c-0.8-3.4-4.2-5.6-7.6-4.8
						C31.6,36.9,29.5,40.3,30.2,43.7z"/>
					<path class="st9" d="M33.7,40.3c0,0,4.7-1,5.6,4.2"/>
				</g>
				<g>
					<path class="st8" d="M65.6,39.2c0.1,0.7,0.7,1.1,1.4,1c0.7-0.1,1.1-0.7,1-1.4c-0.1-0.7-0.7-1.1-1.4-1
						C65.9,37.9,65.5,38.6,65.6,39.2z"/>
					<path class="st8" d="M55.5,38.7c0.1,0.7,0.7,1.1,1.4,1c0.7-0.1,1.1-0.7,1-1.4c-0.1-0.7-0.7-1.1-1.4-1
						C55.8,37.4,55.3,38,55.5,38.7z"/>
					<polyline class="st9" points="62.9,40.2 64.9,43.4 62.9,44.4 					"/>
					<path class="st8" d="M59.2,31.2L59.2,31.2c0.1,1-0.7,1.8-1.7,1.8c-1.5,0-3.6,0-5.6,0.6c-0.7,0.2-1.5-0.2-1.8-0.9l0,0
						c-0.2-0.7,0.1-1.4,0.8-1.8c1.3-0.8,3.4-1.9,6.9-1.2C58.5,29.8,59.1,30.4,59.2,31.2z"/>
					<path class="st8" d="M63.9,31.5L63.9,31.5c0,1,0.6,1.8,1.3,1.8c1,0,2.4,0.2,3.8,0.9c0.5,0.2,1-0.1,1.1-0.8l0,0
						c0.1-0.7-0.2-1.4-0.7-1.8c-0.9-0.8-2.4-2-4.6-1.5C64.2,30.2,63.9,30.8,63.9,31.5z"/>
					<g>
						<path class="st10" d="M60.9,38c0,3.5-2.9,6.3-6.3,6.3c-3.4,0-6.2-2.9-6.1-6.4c0-3.5,2.9-6.3,6.3-6.3
							C58.2,31.7,60.9,34.5,60.9,38z"/>
						<path class="st10" d="M75.3,38.1c0,3.4-2.5,6.1-5.4,6c-2.9,0-5.3-2.8-5.2-6.1s2.5-6.1,5.4-6C72.9,32,75.3,34.8,75.3,38.1z"/>
						<path class="st11" d="M60.9,38c0,3.5-2.9,6.3-6.3,6.3c-3.4,0-6.2-2.9-6.1-6.4c0-3.5,2.9-6.3,6.3-6.3
							C58.2,31.7,60.9,34.5,60.9,38z"/>
						<path class="st11" d="M75.3,38.1c0,3.4-2.5,6.1-5.4,6c-2.9,0-5.3-2.8-5.2-6.1s2.5-6.1,5.4-6C72.9,32,75.3,34.8,75.3,38.1z"/>
						<path class="st11" d="M60.9,38c0,0,1.9-1.6,3.7,0"/>
						<line class="st11" x1="48.5" y1="37.9" x2="42.2" y2="38.8"/>
					</g>
					<path class="st1" d="M64,47.8l-5.5,0.1c0,0,0,1.7,2.8,1.7C64.1,49.6,64,47.8,64,47.8z"/>
				</g>
				<g>
					<path class="st12" d="M36.8,14.5c0.2,1.4,1.5,2.4,2.9,2.1c1.4-0.2,2.4-1.5,2.1-2.9c-0.2-1.4-1.5-2.4-2.9-2.1
						C37.5,11.8,36.6,13.1,36.8,14.5z"/>
					<g>
						<g>
							<path class="st13" d="M43,12.2c-9.3,3.7-14,13.7-10.6,22.3L63.8,17C59.2,11.2,50.7,9.1,43,12.2z"/>
						</g>
					</g>
					<path class="st4" d="M43.6,28.2c0,0,8.1-10.7,19.7-11.8l12.5-1.8c0,0-9.7,3.6-13.5,7.7C58.5,26.4,48.3,29.4,43.6,28.2z"/>
				</g>
				<path class="st7" d="M52.1,76.2l1.1,4.9c0,0-8.9,5.7-15.9-3.6l-1.8-12.7L52.1,76.2z"/>
			</g>
			<path class="st4" d="M35.4,64.8c0,0,7.4,16.2,3.9,27.3c-1,3.2-10.4,8.2-10.4,8.2c-2.6,2.4-6.8,0.3-6.4-3.2l3.4-29.1
				c0.5-4.7,5-8.1,9.6-7.2c0.3,0.1,0.6,0.1,1,0.2L35.4,64.8z"/>
		</g>
	</g>
</g>
</svg>
