<?xml version="1.0" encoding="UTF-8"?>
<svg id="objects" xmlns="http://www.w3.org/2000/svg" viewBox="0 0 420 350">
  <defs>
    <style>
      .cls-1 {
        fill: #cc1f3c;
      }

      .cls-1, .cls-2, .cls-3 {
        stroke-width: 0px;
      }

      .cls-2 {
        fill: #f7263f;
      }

      .cls-3 {
        fill: #ff7683;
      }
    </style>
  </defs>
  <path class="cls-2" d="M420,118.12c0,153.13-210,231.88-210,231.88,0,0-210-78.75-210-231.88C0,52.85,50.74,0,113.4,0c40.82,0,76.61,22.49,96.6,56.17C229.99,22.49,265.78,0,306.6,0c62.66,0,113.4,52.85,113.4,118.12Z"/>
  <path class="cls-1" d="M420,118.12c0,153.13-210,231.88-210,231.88,0,0-84.19-31.57-145.96-93.61,207.62,61.31,282.96-60.99,282.96-152.39,0-70.76-50.37-92.31-74.45-98.57,10.75-3.53,22.19-5.43,34.05-5.43,62.66,0,113.4,52.85,113.4,118.12Z"/>
  <path class="cls-3" d="M129.04,28.27c-36.26-3.59-111.62.84-101.03,102.43.41,3.94,5.91,4.54,7.18.78,9.03-26.8,33.76-77.75,94.59-96.01,3.87-1.16,3.28-6.81-.74-7.21Z"/>
</svg>